<svg width="20" height="20" viewBox="0 0 20 20" fill="none" xmlns="http://www.w3.org/2000/svg">
<path d="M12.576 11.366C14.5489 10.3831 15.9081 8.35265 15.9106 5.99934C15.9106 2.68598 13.2246 0 9.91129 0C6.59793 0 3.91195 2.68598 3.91195 5.99934C3.91195 8.35363 5.27136 10.3854 7.24508 11.3678C3.58709 12.3796 0.659867 15.4235 0.00710693 19.4148C0.00686286 19.4162 0.00667979 19.4175 0.00643562 19.4189C-0.0382982 19.6914 0.146374 19.9486 0.418927 19.9933C0.691419 20.038 0.948592 19.8533 0.993326 19.5808C1.6182 15.7468 4.62378 12.7412 8.45783 12.1163C13.3831 11.3136 18.0265 14.6556 18.8292 19.5808C18.8698 19.8212 19.0776 19.9973 19.3214 19.9978C19.3495 19.998 19.3776 19.9957 19.4054 19.991C19.6777 19.9451 19.8614 19.6872 19.8155 19.4148C19.178 15.5168 16.322 12.3973 12.576 11.366ZM9.91129 10.9988C7.15018 10.9988 4.91184 8.76045 4.91184 5.99934C4.91184 3.23823 7.15018 0.99989 9.91129 0.99989C12.6711 1.00312 14.9075 3.23957 14.9107 5.99934C14.9107 8.76045 12.6724 10.9988 9.91129 10.9988Z" fill="#A93226"/>
</svg>
