<svg width="21" height="20" viewBox="0 0 21 20" fill="none" xmlns="http://www.w3.org/2000/svg">
<path d="M20.3225 15H5.32251C4.49408 15 3.82251 14.3284 3.82251 13.5C3.82251 12.6716 4.49408 12 5.32251 12H16.2864C17.5525 12.0042 18.6588 11.1456 18.969 9.91803L20.8069 2.62207C20.8749 2.3551 20.7136 2.0835 20.4466 2.01544C20.406 2.00513 20.3643 1.99994 20.3225 2H5.21338L5.18677 1.89356C4.90948 0.779848 3.90869 -0.00134107 2.76099 1.72844e-06H1.32251C1.04639 1.72844e-06 0.82251 0.223879 0.82251 0.500002C0.82251 0.776125 1.04639 1 1.32251 1H2.76099C3.44946 0.999025 4.04987 1.46765 4.21606 2.13574L6.43188 11H5.32251C3.94177 11 2.82251 12.1193 2.82251 13.5C2.82251 14.8807 3.94177 16 5.32251 16H6.33496C6.00439 16.4304 5.82434 16.9573 5.82251 17.5C5.82251 18.8807 6.94177 20 8.32251 20C9.70325 20 10.8225 18.8807 10.8225 17.5C10.8207 16.9573 10.6406 16.4304 10.3101 16H14.335C14.0044 16.4304 13.8243 16.9573 13.8225 17.5C13.8225 18.8807 14.9418 20 16.3225 20C17.7032 20 18.8225 18.8807 18.8225 17.5C18.8207 16.9573 18.6406 16.4304 18.3101 16H20.3225C20.5986 16 20.8225 15.7761 20.8225 15.5C20.8225 15.2239 20.5986 15 20.3225 15ZM5.46411 3H19.6809L17.9993 9.67383C17.8006 10.4568 17.0942 11.0038 16.2864 11H7.47876L5.46411 3ZM8.32251 19C7.49408 19 6.82251 18.3284 6.82251 17.5C6.82251 16.6716 7.49408 16 8.32251 16C9.15094 16 9.82251 16.6716 9.82251 17.5C9.82159 18.3281 9.15057 18.9991 8.32251 19ZM16.3225 19C15.4941 19 14.8225 18.3284 14.8225 17.5C14.8225 16.6716 15.4941 16 16.3225 16C17.1509 16 17.8225 16.6716 17.8225 17.5C17.8216 18.3281 17.1506 18.9991 16.3225 19Z" fill="#A93226"/>
</svg>
