<svg width="23" height="22" viewBox="0 0 23 22" fill="none" xmlns="http://www.w3.org/2000/svg">
<path d="M11.1378 5.32812C14.2316 5.32812 16.7852 7.8817 16.7852 10.9754C16.7852 14.1183 14.2316 16.6228 11.1378 16.6228C7.99498 16.6228 5.49051 14.1183 5.49051 10.9754C5.49051 7.8817 7.99498 5.32812 11.1378 5.32812ZM11.1378 14.6585C13.1512 14.6585 14.7718 13.0379 14.7718 10.9754C14.7718 8.96205 13.1512 7.34152 11.1378 7.34152C9.07534 7.34152 7.4548 8.96205 7.4548 10.9754C7.4548 13.0379 9.12444 14.6585 11.1378 14.6585ZM18.3075 5.1317C18.3075 4.39509 17.7182 3.8058 16.9816 3.8058C16.245 3.8058 15.6557 4.39509 15.6557 5.1317C15.6557 5.8683 16.245 6.45759 16.9816 6.45759C17.7182 6.45759 18.3075 5.8683 18.3075 5.1317ZM22.0396 6.45759C22.1378 8.27455 22.1378 13.7254 22.0396 15.5424C21.9414 17.3103 21.5485 18.8326 20.2718 20.1585C18.995 21.4353 17.4235 21.8281 15.6557 21.9263C13.8387 22.0246 8.38784 22.0246 6.57087 21.9263C4.80301 21.8281 3.28069 21.4353 1.9548 20.1585C0.678013 18.8326 0.285156 17.3103 0.186942 15.5424C0.0887277 13.7254 0.0887277 8.27455 0.186942 6.45759C0.285156 4.68973 0.678013 3.1183 1.9548 1.84152C3.28069 0.564732 4.80301 0.171875 6.57087 0.0736607C8.38784 -0.0245536 13.8387 -0.0245536 15.6557 0.0736607C17.4235 0.171875 18.995 0.564732 20.2718 1.84152C21.5485 3.1183 21.9414 4.68973 22.0396 6.45759ZM19.6825 17.4576C20.2718 16.0335 20.1244 12.596 20.1244 10.9754C20.1244 9.40402 20.2718 5.96652 19.6825 4.4933C19.2896 3.56027 18.553 2.77455 17.62 2.4308C16.1468 1.84152 12.7093 1.98884 11.1378 1.98884C9.5173 1.98884 6.0798 1.84152 4.65569 2.4308C3.67355 2.82366 2.93694 3.56027 2.54408 4.4933C1.9548 5.96652 2.10212 9.40402 2.10212 10.9754C2.10212 12.596 1.9548 16.0335 2.54408 17.4576C2.93694 18.4397 3.67355 19.1763 4.65569 19.5692C6.0798 20.1585 9.5173 20.0112 11.1378 20.0112C12.7093 20.0112 16.1468 20.1585 17.62 19.5692C18.553 19.1763 19.3387 18.4397 19.6825 17.4576Z" fill="#A93226"/>
</svg>
