<svg width="163" height="56" viewBox="0 0 163 56" fill="none" xmlns="http://www.w3.org/2000/svg">
<rect x="117" width="46" height="56" fill="#A93226"/>
<path d="M15.4646 52.66C12.3846 52.66 9.96461 52.02 8.20461 50.74C6.48461 49.46 5.26461 47.66 4.54461 45.34C3.82461 42.98 3.46461 40.26 3.46461 37.18V18.22C3.46461 15.1 3.80461 12.4 4.48461 10.12C5.20461 7.84 6.44461 6.08 8.20461 4.84C10.0046 3.56 12.5246 2.92 15.7646 2.92C18.6846 2.92 20.9846 3.46 22.6646 4.54C24.3846 5.62 25.6246 7.2 26.3846 9.28C27.1446 11.36 27.5246 13.9 27.5246 16.9V18.58H23.2046V16.9C23.2046 14.58 22.9846 12.66 22.5446 11.14C22.1446 9.62 21.4246 8.48 20.3846 7.72C19.3446 6.96 17.8246 6.58 15.8246 6.58C13.5846 6.58 11.9046 7.06 10.7846 8.02C9.66461 8.98 8.92461 10.3 8.56461 11.98C8.24461 13.66 8.08461 15.58 8.08461 17.74V37.72C8.08461 40.08 8.28461 42.1 8.68461 43.78C9.12461 45.42 9.90461 46.7 11.0246 47.62C12.1846 48.5 13.8046 48.94 15.8846 48.94C17.9246 48.94 19.4846 48.5 20.5646 47.62C21.6446 46.7 22.4046 45.4 22.8446 43.72C23.2846 42.04 23.5046 40 23.5046 37.6V31.9H16.3046V28.48H27.7046V52H24.7646L24.2246 46.48C23.6246 48.32 22.6246 49.82 21.2246 50.98C19.8646 52.1 17.9446 52.66 15.4646 52.66ZM40.6979 52.54C39.2979 52.54 38.0779 52.2 37.0379 51.52C35.9979 50.8 35.1779 49.86 34.5779 48.7C34.0179 47.5 33.7379 46.2 33.7379 44.8C33.7379 43.04 33.9779 41.54 34.4579 40.3C34.9779 39.06 35.7779 37.96 36.8579 37C37.9779 36 39.4179 35.04 41.1779 34.12C42.9779 33.16 45.1579 32.1 47.7179 30.94V28.48C47.7179 26.36 47.5779 24.7 47.2979 23.5C47.0579 22.26 46.6179 21.38 45.9779 20.86C45.3779 20.34 44.5179 20.08 43.3979 20.08C42.4779 20.08 41.6579 20.26 40.9379 20.62C40.2179 20.98 39.6379 21.6 39.1979 22.48C38.7579 23.32 38.5379 24.5 38.5379 26.02V27.22L34.2179 27.16C34.2579 23.64 34.9979 21.04 36.4379 19.36C37.9179 17.64 40.3179 16.78 43.6379 16.78C46.7579 16.78 48.9379 17.72 50.1779 19.6C51.4579 21.44 52.0979 24.32 52.0979 28.24V45.1C52.0979 45.7 52.1179 46.48 52.1579 47.44C52.1979 48.36 52.2379 49.24 52.2779 50.08C52.3179 50.92 52.3579 51.56 52.3979 52H48.4979C48.4179 51.24 48.2979 50.4 48.1379 49.48C47.9779 48.52 47.8779 47.76 47.8379 47.2C47.3579 48.6 46.4979 49.84 45.2579 50.92C44.0579 52 42.5379 52.54 40.6979 52.54ZM42.0779 48.82C42.9579 48.82 43.7579 48.6 44.4779 48.16C45.1979 47.72 45.8379 47.2 46.3979 46.6C46.9579 45.96 47.3979 45.32 47.7179 44.68V33.88C45.9979 34.76 44.5179 35.56 43.2779 36.28C42.0779 37 41.0979 37.7 40.3379 38.38C39.5779 39.06 39.0179 39.84 38.6579 40.72C38.2979 41.56 38.1179 42.56 38.1179 43.72C38.1179 45.56 38.5179 46.88 39.3179 47.68C40.1179 48.44 41.0379 48.82 42.0779 48.82ZM58.5455 52V17.32H62.6255V20.86C63.7855 19.5 65.0655 18.48 66.4655 17.8C67.8655 17.08 69.3055 16.72 70.7855 16.72C71.9855 16.72 73.0855 17.04 74.0855 17.68C75.1255 18.32 75.8655 19.5 76.3055 21.22C77.5055 19.74 78.8255 18.62 80.2655 17.86C81.7055 17.1 83.2255 16.72 84.8255 16.72C85.8255 16.72 86.7655 16.96 87.6455 17.44C88.5655 17.92 89.3055 18.74 89.8655 19.9C90.4255 21.06 90.7055 22.64 90.7055 24.64V52H86.6255V24.76C86.6255 22.72 86.2855 21.38 85.6055 20.74C84.9655 20.06 84.1455 19.72 83.1455 19.72C82.0255 19.72 80.9055 20.04 79.7855 20.68C78.6655 21.32 77.6055 22.2 76.6055 23.32C76.6455 23.52 76.6655 23.74 76.6655 23.98C76.7055 24.18 76.7255 24.4 76.7255 24.64V52H72.5855V24.76C72.5855 22.72 72.2455 21.38 71.5655 20.74C70.9255 20.06 70.1055 19.72 69.1055 19.72C68.0255 19.72 66.9255 20.04 65.8055 20.68C64.6855 21.32 63.6255 22.18 62.6255 23.26V52H58.5455ZM105.859 52.54C103.699 52.54 101.919 52.12 100.519 51.28C99.1588 50.4 98.1388 48.96 97.4588 46.96C96.8188 44.96 96.4988 42.3 96.4988 38.98V30.22C96.4988 26.78 96.8388 24.1 97.5188 22.18C98.1988 20.22 99.2388 18.84 100.639 18.04C102.039 17.2 103.799 16.78 105.919 16.78C108.359 16.78 110.219 17.3 111.499 18.34C112.779 19.38 113.659 20.96 114.139 23.08C114.659 25.16 114.919 27.84 114.919 31.12V34.24H100.879V40.3C100.879 42.54 101.039 44.32 101.359 45.64C101.719 46.92 102.259 47.84 102.979 48.4C103.739 48.96 104.699 49.24 105.859 49.24C106.739 49.24 107.539 49.08 108.259 48.76C108.979 48.4 109.539 47.74 109.939 46.78C110.379 45.78 110.599 44.38 110.599 42.58V40.18H114.859V42.1C114.859 45.26 114.199 47.8 112.879 49.72C111.599 51.6 109.259 52.54 105.859 52.54ZM100.879 31.72H110.599V28.84C110.599 27 110.499 25.44 110.299 24.16C110.099 22.84 109.659 21.84 108.979 21.16C108.339 20.44 107.299 20.08 105.859 20.08C104.659 20.08 103.679 20.34 102.919 20.86C102.199 21.38 101.679 22.32 101.359 23.68C101.039 25 100.879 26.9 100.879 29.38V31.72Z" fill="black"/>
<path d="M121.371 52V3.4H130.131V52H121.371ZM142.514 52V9.94H134.774V3.4H159.014V9.94H151.394V52H142.514Z" fill="white"/>
</svg>
