<svg width="20" height="20" viewBox="0 0 20 20" fill="none" xmlns="http://www.w3.org/2000/svg">
<path d="M19.8595 19.1526L15.6976 14.9908C17.1227 13.3989 17.9975 11.3042 18 8.99999C18 4.02942 13.9706 0 8.99999 0C4.02942 0 0 4.02942 0 8.99999C0 13.9706 4.02942 18 8.99999 18C11.3041 17.9975 13.3989 17.1228 14.9907 15.6978L19.1525 19.8596C19.3462 20.0468 19.6534 20.0468 19.8472 19.8596C20.0458 19.6678 20.0513 19.3512 19.8595 19.1526ZM8.99999 17C4.58172 17 0.999999 13.4183 0.999999 8.99999C0.999999 4.58172 4.58172 0.999999 8.99999 0.999999C13.4162 1.00507 16.9949 4.5838 17 8.99999C17 13.4183 13.4183 17 8.99999 17Z" fill="#A93226"/>
</svg>
